<mxfile host="Electron" modified="2024-12-17T13:46:39.320Z" agent="Mozilla/5.0 (Windows NT 10.0; Win64; x64) AppleWebKit/537.36 (KHTML, like Gecko) draw.io/24.2.5 Chrome/120.0.6099.109 Electron/28.1.0 Safari/537.36" etag="7nXkWeiaoj8p9LkGIHrm" version="24.2.5" type="device">
  <diagram name="Page-1" id="0783ab3e-0a74-02c8-0abd-f7b4e66b4bec">
    <mxGraphModel dx="1434" dy="836" grid="1" gridSize="10" guides="1" tooltips="1" connect="1" arrows="1" fold="1" page="1" pageScale="1" pageWidth="850" pageHeight="1100" background="none" math="0" shadow="0">
      <root>
        <mxCell id="0" />
        <mxCell id="1" parent="0" />
        <mxCell id="C3tRWDrhZNb_n_BG-Y23-1" value="Register" style="swimlane;html=1;childLayout=stackLayout;startSize=20;rounded=0;shadow=0;comic=0;labelBackgroundColor=none;strokeWidth=1;fontFamily=Verdana;fontSize=12;align=center;" vertex="1" parent="1">
          <mxGeometry x="50" y="40" width="750" height="800" as="geometry" />
        </mxCell>
        <mxCell id="C3tRWDrhZNb_n_BG-Y23-2" value="User" style="swimlane;html=1;startSize=20;" vertex="1" parent="C3tRWDrhZNb_n_BG-Y23-1">
          <mxGeometry y="20" width="250" height="780" as="geometry" />
        </mxCell>
        <mxCell id="C3tRWDrhZNb_n_BG-Y23-24" style="edgeStyle=orthogonalEdgeStyle;rounded=0;orthogonalLoop=1;jettySize=auto;html=1;entryX=0.5;entryY=0;entryDx=0;entryDy=0;" edge="1" parent="C3tRWDrhZNb_n_BG-Y23-2" source="C3tRWDrhZNb_n_BG-Y23-4" target="C3tRWDrhZNb_n_BG-Y23-5">
          <mxGeometry relative="1" as="geometry" />
        </mxCell>
        <mxCell id="C3tRWDrhZNb_n_BG-Y23-4" value="" style="ellipse;whiteSpace=wrap;html=1;rounded=0;shadow=0;comic=0;labelBackgroundColor=none;strokeWidth=1;fillColor=#000000;fontFamily=Verdana;fontSize=12;align=center;" vertex="1" parent="C3tRWDrhZNb_n_BG-Y23-2">
          <mxGeometry x="100" y="60" width="40" height="40" as="geometry" />
        </mxCell>
        <mxCell id="C3tRWDrhZNb_n_BG-Y23-5" value="Enter username and password and confirm password" style="rounded=1;whiteSpace=wrap;html=1;shadow=0;comic=0;labelBackgroundColor=none;strokeWidth=1;fontFamily=Verdana;fontSize=12;align=center;arcSize=50;" vertex="1" parent="C3tRWDrhZNb_n_BG-Y23-2">
          <mxGeometry x="50" y="170" width="140" height="60" as="geometry" />
        </mxCell>
        <mxCell id="C3tRWDrhZNb_n_BG-Y23-6" value="App" style="swimlane;html=1;startSize=20;" vertex="1" parent="C3tRWDrhZNb_n_BG-Y23-1">
          <mxGeometry x="250" y="20" width="250" height="780" as="geometry" />
        </mxCell>
        <mxCell id="C3tRWDrhZNb_n_BG-Y23-7" style="edgeStyle=orthogonalEdgeStyle;rounded=0;orthogonalLoop=1;jettySize=auto;html=1;" edge="1" parent="C3tRWDrhZNb_n_BG-Y23-6" source="C3tRWDrhZNb_n_BG-Y23-8" target="C3tRWDrhZNb_n_BG-Y23-10">
          <mxGeometry relative="1" as="geometry" />
        </mxCell>
        <mxCell id="C3tRWDrhZNb_n_BG-Y23-8" value="Alert register successfully" style="rounded=1;whiteSpace=wrap;html=1;shadow=0;comic=0;labelBackgroundColor=none;strokeWidth=1;fontFamily=Verdana;fontSize=12;align=center;arcSize=50;" vertex="1" parent="C3tRWDrhZNb_n_BG-Y23-6">
          <mxGeometry x="62.5" y="570" width="125" height="60" as="geometry" />
        </mxCell>
        <mxCell id="C3tRWDrhZNb_n_BG-Y23-10" value="" style="shape=mxgraph.bpmn.shape;html=1;verticalLabelPosition=bottom;labelBackgroundColor=#ffffff;verticalAlign=top;perimeter=ellipsePerimeter;outline=end;symbol=terminate;rounded=0;shadow=0;comic=0;strokeWidth=1;fontFamily=Verdana;fontSize=12;align=center;" vertex="1" parent="C3tRWDrhZNb_n_BG-Y23-6">
          <mxGeometry x="105" y="670" width="40" height="40" as="geometry" />
        </mxCell>
        <mxCell id="C3tRWDrhZNb_n_BG-Y23-11" style="edgeStyle=orthogonalEdgeStyle;rounded=0;orthogonalLoop=1;jettySize=auto;html=1;exitX=0.5;exitY=1;exitDx=0;exitDy=0;" edge="1" parent="C3tRWDrhZNb_n_BG-Y23-6">
          <mxGeometry relative="1" as="geometry">
            <mxPoint x="120" y="600" as="sourcePoint" />
            <mxPoint x="120" y="600" as="targetPoint" />
          </mxGeometry>
        </mxCell>
        <mxCell id="C3tRWDrhZNb_n_BG-Y23-30" style="edgeStyle=orthogonalEdgeStyle;rounded=0;orthogonalLoop=1;jettySize=auto;html=1;entryX=0.5;entryY=0;entryDx=0;entryDy=0;" edge="1" parent="C3tRWDrhZNb_n_BG-Y23-6" source="C3tRWDrhZNb_n_BG-Y23-25" target="C3tRWDrhZNb_n_BG-Y23-28">
          <mxGeometry relative="1" as="geometry">
            <mxPoint x="122.5" y="270" as="targetPoint" />
          </mxGeometry>
        </mxCell>
        <mxCell id="C3tRWDrhZNb_n_BG-Y23-45" value="[if passwords not match]" style="edgeLabel;html=1;align=center;verticalAlign=middle;resizable=0;points=[];" vertex="1" connectable="0" parent="C3tRWDrhZNb_n_BG-Y23-30">
          <mxGeometry x="-0.3" y="3" relative="1" as="geometry">
            <mxPoint as="offset" />
          </mxGeometry>
        </mxCell>
        <mxCell id="C3tRWDrhZNb_n_BG-Y23-25" value="" style="rhombus;whiteSpace=wrap;html=1;" vertex="1" parent="C3tRWDrhZNb_n_BG-Y23-6">
          <mxGeometry x="100" y="180" width="45" height="40" as="geometry" />
        </mxCell>
        <mxCell id="C3tRWDrhZNb_n_BG-Y23-28" value="Alert password and confirm password not match" style="rounded=1;whiteSpace=wrap;html=1;shadow=0;comic=0;labelBackgroundColor=none;strokeWidth=1;fontFamily=Verdana;fontSize=12;align=center;arcSize=50;" vertex="1" parent="C3tRWDrhZNb_n_BG-Y23-6">
          <mxGeometry x="57.5" y="280" width="130" height="60" as="geometry" />
        </mxCell>
        <mxCell id="C3tRWDrhZNb_n_BG-Y23-42" value="Alert username already exists" style="rounded=1;whiteSpace=wrap;html=1;shadow=0;comic=0;labelBackgroundColor=none;strokeWidth=1;fontFamily=Verdana;fontSize=12;align=center;arcSize=50;" vertex="1" parent="C3tRWDrhZNb_n_BG-Y23-6">
          <mxGeometry x="60" y="430" width="130" height="60" as="geometry" />
        </mxCell>
        <mxCell id="C3tRWDrhZNb_n_BG-Y23-18" value="Database" style="swimlane;html=1;startSize=20;" vertex="1" parent="C3tRWDrhZNb_n_BG-Y23-1">
          <mxGeometry x="500" y="20" width="250" height="780" as="geometry" />
        </mxCell>
        <mxCell id="C3tRWDrhZNb_n_BG-Y23-20" value="Insert new user to data base" style="rounded=1;whiteSpace=wrap;html=1;shadow=0;comic=0;labelBackgroundColor=none;strokeWidth=1;fontFamily=Verdana;fontSize=12;align=center;arcSize=50;" vertex="1" parent="C3tRWDrhZNb_n_BG-Y23-18">
          <mxGeometry x="50" y="570" width="130" height="60" as="geometry" />
        </mxCell>
        <mxCell id="C3tRWDrhZNb_n_BG-Y23-32" value="" style="rhombus;whiteSpace=wrap;html=1;" vertex="1" parent="C3tRWDrhZNb_n_BG-Y23-18">
          <mxGeometry x="110" y="180" width="45" height="40" as="geometry" />
        </mxCell>
        <mxCell id="C3tRWDrhZNb_n_BG-Y23-39" value="" style="endArrow=classic;html=1;rounded=0;exitX=1;exitY=0.5;exitDx=0;exitDy=0;entryX=0.942;entryY=0.333;entryDx=0;entryDy=0;entryPerimeter=0;" edge="1" parent="C3tRWDrhZNb_n_BG-Y23-18" source="C3tRWDrhZNb_n_BG-Y23-32" target="C3tRWDrhZNb_n_BG-Y23-20">
          <mxGeometry width="50" height="50" relative="1" as="geometry">
            <mxPoint x="-150" y="310" as="sourcePoint" />
            <mxPoint x="-100" y="260" as="targetPoint" />
            <Array as="points">
              <mxPoint x="210" y="200" />
              <mxPoint x="210" y="590" />
            </Array>
          </mxGeometry>
        </mxCell>
        <mxCell id="C3tRWDrhZNb_n_BG-Y23-40" value="[not exist username]" style="edgeLabel;html=1;align=center;verticalAlign=middle;resizable=0;points=[];" vertex="1" connectable="0" parent="C3tRWDrhZNb_n_BG-Y23-39">
          <mxGeometry x="-0.7654" y="-1" relative="1" as="geometry">
            <mxPoint x="-9" y="-12" as="offset" />
          </mxGeometry>
        </mxCell>
        <mxCell id="C3tRWDrhZNb_n_BG-Y23-26" style="edgeStyle=orthogonalEdgeStyle;rounded=0;orthogonalLoop=1;jettySize=auto;html=1;entryX=0;entryY=0.5;entryDx=0;entryDy=0;" edge="1" parent="C3tRWDrhZNb_n_BG-Y23-1" source="C3tRWDrhZNb_n_BG-Y23-5" target="C3tRWDrhZNb_n_BG-Y23-25">
          <mxGeometry relative="1" as="geometry" />
        </mxCell>
        <mxCell id="C3tRWDrhZNb_n_BG-Y23-33" style="edgeStyle=orthogonalEdgeStyle;rounded=0;orthogonalLoop=1;jettySize=auto;html=1;entryX=0;entryY=0.5;entryDx=0;entryDy=0;" edge="1" parent="C3tRWDrhZNb_n_BG-Y23-1" source="C3tRWDrhZNb_n_BG-Y23-25" target="C3tRWDrhZNb_n_BG-Y23-32">
          <mxGeometry relative="1" as="geometry" />
        </mxCell>
        <mxCell id="C3tRWDrhZNb_n_BG-Y23-46" value="[if passwords matched]" style="edgeLabel;align=center;verticalAlign=middle;resizable=0;points=[];html=1;" vertex="1" connectable="0" parent="C3tRWDrhZNb_n_BG-Y23-33">
          <mxGeometry x="-0.693" y="2" relative="1" as="geometry">
            <mxPoint x="12" y="-18" as="offset" />
          </mxGeometry>
        </mxCell>
        <mxCell id="C3tRWDrhZNb_n_BG-Y23-37" style="edgeStyle=orthogonalEdgeStyle;rounded=0;orthogonalLoop=1;jettySize=auto;html=1;entryX=1;entryY=0.5;entryDx=0;entryDy=0;" edge="1" parent="C3tRWDrhZNb_n_BG-Y23-1" source="C3tRWDrhZNb_n_BG-Y23-20" target="C3tRWDrhZNb_n_BG-Y23-8">
          <mxGeometry relative="1" as="geometry" />
        </mxCell>
        <mxCell id="C3tRWDrhZNb_n_BG-Y23-38" value="" style="endArrow=classic;html=1;rounded=0;exitX=0;exitY=0.5;exitDx=0;exitDy=0;entryX=0.5;entryY=1;entryDx=0;entryDy=0;" edge="1" parent="C3tRWDrhZNb_n_BG-Y23-1" source="C3tRWDrhZNb_n_BG-Y23-28" target="C3tRWDrhZNb_n_BG-Y23-5">
          <mxGeometry width="50" height="50" relative="1" as="geometry">
            <mxPoint x="350" y="330" as="sourcePoint" />
            <mxPoint x="400" y="280" as="targetPoint" />
            <Array as="points">
              <mxPoint x="120" y="330" />
            </Array>
          </mxGeometry>
        </mxCell>
        <mxCell id="C3tRWDrhZNb_n_BG-Y23-41" value="" style="endArrow=classic;html=1;rounded=0;exitX=0.5;exitY=1;exitDx=0;exitDy=0;entryX=1;entryY=0.5;entryDx=0;entryDy=0;" edge="1" parent="C3tRWDrhZNb_n_BG-Y23-1" source="C3tRWDrhZNb_n_BG-Y23-32" target="C3tRWDrhZNb_n_BG-Y23-42">
          <mxGeometry width="50" height="50" relative="1" as="geometry">
            <mxPoint x="570" y="400" as="sourcePoint" />
            <mxPoint x="633" y="360" as="targetPoint" />
            <Array as="points">
              <mxPoint x="630" y="480" />
            </Array>
          </mxGeometry>
        </mxCell>
        <mxCell id="C3tRWDrhZNb_n_BG-Y23-44" value="[username existed]" style="edgeLabel;html=1;align=center;verticalAlign=middle;resizable=0;points=[];" vertex="1" connectable="0" parent="C3tRWDrhZNb_n_BG-Y23-41">
          <mxGeometry x="-0.6367" y="-2" relative="1" as="geometry">
            <mxPoint x="3" y="-49" as="offset" />
          </mxGeometry>
        </mxCell>
        <mxCell id="C3tRWDrhZNb_n_BG-Y23-43" value="" style="endArrow=classic;html=1;rounded=0;exitX=0;exitY=0.5;exitDx=0;exitDy=0;" edge="1" parent="1" source="C3tRWDrhZNb_n_BG-Y23-42">
          <mxGeometry width="50" height="50" relative="1" as="geometry">
            <mxPoint x="400" y="370" as="sourcePoint" />
            <mxPoint x="170" y="290" as="targetPoint" />
            <Array as="points">
              <mxPoint x="170" y="520" />
            </Array>
          </mxGeometry>
        </mxCell>
      </root>
    </mxGraphModel>
  </diagram>
</mxfile>
